<svg width="131" height="50" viewBox="0 0 131 50" fill="none" xmlns="http://www.w3.org/2000/svg">
<path d="M23.5799 29.5902C23.5799 30.0167 23.3673 30.0167 23.4374 30.3708C23.5087 30.6547 22.7281 32.7136 22.5867 32.9975C22.1602 34.1333 21.6636 35.269 21.2382 36.4048C20.5991 37.682 19.96 38.8189 19.3219 40.0248C19.038 40.5214 15.7008 44.7805 15.3467 45.0645C14.4236 45.7036 12.8614 47.5487 12.0107 48.1166C11.4428 48.4706 9.31272 49.2523 8.8161 49.3236C7.89301 49.3937 6.89858 49.4661 6.04676 49.2535C4.55691 49.0396 2.35552 46.8394 1.6451 45.4197C1.28989 44.7805 0.864557 44.2126 0.651884 43.5033C0.367942 42.5803 0.154121 41.0893 0.0839844 40.0248C0.0839844 34.0609 0.794442 33.2102 2.49809 27.4601C2.64063 26.9623 2.71073 26.537 2.85326 26.0404C2.92453 25.5438 3.13722 25.0471 3.27976 24.6207C3.49243 23.8401 3.70624 23.0595 3.91891 22.3491C4.27412 20.788 6.12031 18.09 4.41666 17.7348C3.91891 17.6646 3.49355 17.7348 3.0682 17.3807C2.64172 17.0968 2.21644 16.8841 1.78996 16.6002C1.64856 16.4576 1.43587 16.3162 1.36347 15.961C1.506 15.8897 1.64737 15.8185 1.71864 15.8185C2.71187 15.6047 3.63496 15.392 4.62932 15.1793C5.26847 15.0368 5.97777 14.9655 6.68819 14.8954C6.971 14.8241 7.25609 14.6816 7.39749 14.3275C7.6113 13.7596 7.96537 13.263 8.1079 12.6238C8.81832 11.2754 9.31496 9.85456 10.0955 8.57738C10.8059 7.44162 11.5152 6.44726 12.4383 5.59543C12.5797 5.38276 12.7935 5.16895 12.9349 5.02755C13.2189 4.81374 13.5028 4.67234 13.858 4.7436C14.2845 4.88501 14.7098 4.67234 15.2076 4.67234C15.2777 4.67234 15.2777 4.67234 15.349 4.6022C16.3422 4.38839 16.6974 4.81487 16.9814 5.59543C17.3366 6.30585 17.478 7.01514 17.478 7.86696C17.478 8.29344 17.5481 8.64752 17.6205 9.00273C17.6906 9.28667 17.6906 9.64075 17.6205 9.99596C17.5492 10.3512 17.478 10.7064 17.4067 11.1317C17.2653 11.6996 17.1228 12.2675 16.9814 12.8354C16.9814 13.0481 16.9814 13.1895 16.9101 13.4033C17.1228 13.5447 17.3366 13.5447 17.6205 13.5447C18.4723 13.4734 19.3955 13.4033 20.2473 13.3309C21.4543 13.3309 22.7326 13.3309 23.9385 13.3309C24.3639 13.3309 24.7904 13.4734 25.287 13.5447C25.1456 13.7573 25.0743 13.8987 25.0042 13.9711C24.8628 14.1137 24.649 14.254 24.5064 14.3264C24.0098 14.539 23.4419 14.823 22.9453 15.0368C22.9453 15.1069 22.874 15.1069 22.874 15.1069C22.0934 15.1782 21.2416 15.5334 20.3898 15.4621C19.8932 15.4621 19.3966 15.5334 18.8988 15.6759C18.6149 15.8185 18.2597 15.8185 17.9758 15.8886C17.4079 15.9599 16.9113 16.0311 16.3434 16.1024C16.0594 16.1737 15.918 16.3863 15.7755 16.6703C15.7042 16.7416 15.7042 16.8117 15.6341 16.8841C14.7822 19.2982 13.6465 21.5697 12.7234 23.9114C12.5809 24.1953 12.4394 24.4792 12.3682 24.6919C12.0129 25.4023 11.729 26.0404 11.5163 26.8221C11.3037 27.4612 10.9485 28.1004 10.5933 28.6682C10.3105 29.1649 10.3806 29.804 10.0265 30.3006C9.24478 32.0755 8.32171 37.4704 8.46425 40.1684C8.53552 41.3042 8.81945 42.3687 9.17466 43.4332C9.31606 43.7884 9.60114 44.0011 9.81381 44.285C9.88508 44.285 9.95639 44.3552 10.0978 44.3552C10.7369 44.3552 12.0141 44.4264 12.6532 44.0011C13.0797 43.7172 15.2087 42.0135 15.6352 41.6583C16.6997 40.5938 19.1138 37.967 19.8231 36.5473C20.4622 35.3403 20.8174 33.7781 21.4554 32.6434C21.7394 31.933 22.4498 30.3719 22.8039 29.5913C23.1535 29.6603 23.6512 29.3764 23.5799 29.5902ZM12.5763 19.0832C13.2867 17.3094 13.4994 15.8886 11.1566 17.3796C10.3761 19.7224 10.0921 21.3548 9.45298 23.5562C7.89187 29.4477 10.1634 25.0471 11.1566 22.4204C11.6532 21.0708 11.9372 20.3615 12.5763 19.0832ZM14.7777 10.9191C14.849 10.6362 14.9191 10.2799 14.9904 9.92582C15.0616 9.35794 15.2042 8.79006 15.2743 8.22217C15.3456 7.58302 15.2743 6.94387 15.2042 6.30472C15.1329 6.02078 14.9202 5.94951 14.7777 6.09205C14.4938 6.30472 14.2811 6.44726 14.1385 6.80133C13.8546 7.36922 13.5707 8.00837 13.4281 8.64639C13.358 8.86019 13.2155 9.07287 13.1442 9.28554C13.0028 9.56948 12.8603 9.85229 12.7177 10.2086C12.5752 10.9179 12.4338 11.6996 12.2211 12.4802C11.9371 14.3252 13.9247 14.3965 14.3512 13.1182C14.4926 12.41 14.6352 11.7007 14.7777 10.9191Z" fill="black" fill-opacity="0.5"/>
<path d="M27.9804 32.0744C28.2644 31.0099 30.7485 25.9702 31.2463 25.1173C31.6728 24.4781 32.0981 23.8401 32.4533 23.1297C32.8798 22.5618 33.3052 21.9226 33.5891 21.3548C33.8731 20.8581 34.2995 20.5742 34.7249 20.5029C35.2215 20.5029 35.6481 20.4317 36.0734 20.4317C36.9252 20.4317 37.423 21.0708 37.8472 21.9939C37.8472 22.0652 37.8472 22.1353 37.8472 22.2767C37.9886 23.1998 38.2023 24.193 38.3449 25.1874C38.4874 26.1105 38.4161 27.1037 38.4161 28.0268C38.4161 28.666 38.4874 29.3051 38.4161 29.9443C38.7702 30.1569 38.7 30.4409 38.7702 30.3707C38.9127 30.2282 39.4094 30.4409 39.5519 30.2995C39.6221 30.1581 39.7646 30.0868 39.8347 29.9454C40.1187 29.7327 40.4025 29.5189 40.6865 29.1648C40.8991 28.8108 41.113 28.8108 41.3969 29.1648C41.3969 29.3775 41.3257 29.5913 41.113 29.7327C41.0418 29.804 40.9717 29.9454 40.8993 30.0879C40.8291 30.3006 40.6865 30.5144 40.4738 30.5846C40.4025 30.6558 40.3313 30.726 40.26 30.7984C40.1888 30.8696 40.0474 30.9409 40.0474 31.011C39.9761 31.0823 39.906 31.0823 39.8336 31.1536C39.5508 31.4375 39.3369 31.5088 39.053 31.5088C38.9829 31.5088 38.6978 31.58 38.4139 31.7927C38.2012 31.9353 37.9873 31.9353 37.8459 31.7927C37.3493 31.5088 36.8527 31.4386 36.355 31.2248C35.5031 31.0122 34.8652 30.2316 34.5088 29.2372C34.0835 27.9601 34.0835 26.5404 34.2962 25.1919C34.4387 24.5528 34.4387 23.9849 34.5088 23.417C34.5801 22.9905 34.6503 22.5652 34.7227 22.1387C34.8641 21.8559 34.864 21.6421 34.7927 21.3581C34.7226 21.3581 34.5801 21.288 34.5801 21.4294C34.5088 21.5007 34.3663 21.6421 34.2962 21.7835C34.0122 22.3514 33.657 22.9193 33.3018 23.5584C33.0891 23.9125 32.9477 24.339 32.8765 24.8356C32.9466 25.1195 32.7339 25.3333 32.6626 25.546C32.0235 26.753 31.4556 27.8877 31.0302 29.2372C30.675 30.2316 30.1785 31.0834 29.7531 32.0767C29.114 33.5676 28.3334 34.9161 27.8356 36.4783C27.6942 36.9749 27.4092 37.5428 27.1965 38.1118C27.0551 38.5383 25.279 41.9445 24.8548 42.3008C24.8548 42.4422 24.641 42.5135 24.4996 42.656C23.6478 43.8631 22.6534 43.7918 21.5187 43.5079C21.3773 43.6504 21.2349 43.5079 21.0923 43.3665C19.9565 43.0825 19.3875 42.018 19.1047 40.5972C18.8909 39.3901 18.8909 38.113 18.8909 36.9059C18.9621 35.0609 19.0323 33.2147 19.1749 31.3685C19.5301 29.3108 19.2461 29.4522 19.814 27.5359C20.3118 24.7677 20.0278 25.1931 21.0211 22.4249C21.0923 21.9283 21.3762 21.5731 21.5187 21.0765C22.0154 19.7993 22.4419 18.6635 23.0086 17.5278C23.2925 16.6047 23.5765 16.4633 24.2869 16.6047C24.7835 16.6047 25.4227 16.7472 26.0619 16.8886C26.4872 16.9587 26.9137 17.1013 27.4816 17.5979C27.9782 18.521 28.6886 19.1601 29.399 20.012C30.0381 21.1477 30.1796 22.0007 29.7542 23.348C29.399 24.7677 29.2576 23.7032 28.9024 25.1942C27.9793 28.175 26.2756 30.5178 25.4951 33.2158C24.4306 36.6175 27.6965 33.2803 27.9804 32.0744Z" fill="black" fill-opacity="0.5"/>
<path d="M67.2367 30.0155C67.1655 30.5121 66.4561 32.2158 66.1009 32.4997C65.8883 32.571 65.817 32.7837 65.6745 32.8549C65.3917 33.2102 65.1778 33.4941 64.8939 33.778C64.7513 33.9206 64.5387 34.062 64.4685 34.2758C64.2547 34.7011 63.9707 34.9149 63.6167 35.1276C63.4741 35.1989 63.3327 35.2701 63.2626 35.4115C62.8361 35.9082 62.2682 36.3346 61.8429 36.76C61.4164 37.1152 60.991 37.3279 60.4944 37.4704C59.8553 37.6129 59.2874 37.6129 58.7206 37.8256C58.2229 38.0394 57.655 38.0394 57.0883 38.1797C56.8745 38.1797 56.6619 38.1797 56.4492 38.1797C55.5974 37.8969 54.7444 37.7544 54.0351 37.1865C53.9638 37.1152 53.8213 37.0439 53.6799 36.9727C53.0408 36.6899 52.4028 36.3335 51.9763 35.7656C51.4084 36.0496 50.9118 36.3335 50.4853 36.6887C50.2014 36.8313 49.9886 36.9715 49.7047 37.1853C49.6345 37.1853 49.5622 37.2555 49.5622 37.2555C49.1357 37.8234 48.5678 37.8946 48.0011 38.1073C47.0067 38.3912 46.0135 38.3912 45.0904 37.8946C44.7352 37.6808 44.3799 37.5394 44.0247 37.3969C41.967 36.5451 40.8301 34.9828 40.6175 32.7825C40.4749 31.6468 40.6875 30.5811 41.1853 29.5879C41.6819 28.6648 42.1785 27.7417 42.8889 26.9612C42.8889 26.891 42.9602 26.8198 43.0314 26.7485C43.9545 25.3288 45.0904 23.9803 46.1549 22.702C46.9355 21.8502 47.7872 21.1409 48.8517 20.5018C48.9931 20.4305 49.2782 20.3592 49.4909 20.3592C49.9163 20.288 50.3428 20.2178 50.8394 20.2178C50.9106 20.2178 50.9808 20.2178 51.052 20.2178C51.4785 20.4305 52.0453 20.4305 52.543 20.573C52.6844 20.6443 52.8269 20.7145 52.9694 20.7145C53.3235 20.7857 53.6087 20.7857 53.7501 21.0685C53.8213 21.1398 53.8926 21.1398 53.8926 21.1398C54.2478 21.1398 54.5316 21.495 54.8857 21.495C55.0283 21.495 55.1698 21.5663 55.241 21.6364C55.6664 22.0629 56.1641 22.417 56.4481 22.9147C56.5182 23.1274 56.5895 23.2688 56.6607 23.4826C56.8021 24.1218 56.6607 24.5471 56.0215 24.9023C55.3824 25.1863 54.8145 25.6116 54.2466 26.0381C54.2466 26.0381 54.2466 26.0381 54.2466 26.1093C53.4661 26.8899 52.5429 27.6003 51.9038 28.5234C51.6198 28.8786 51.336 29.1626 51.052 29.4465C50.4129 30.1558 49.9163 30.9375 49.3484 31.718C49.1346 32.0733 48.8506 32.4273 48.6379 32.7113C48.4965 32.8527 48.4253 32.9952 48.354 33.1378C47.9275 33.9183 47.6435 34.6989 47.5021 35.4806C47.4309 35.5507 47.5021 35.622 47.5021 35.7634C47.6447 35.6932 47.7159 35.622 47.786 35.5507C48.4965 34.8403 49.2771 34.131 50.1289 33.493C50.5554 33.1378 50.9095 32.7825 51.1934 32.2859C51.3348 32.0721 51.5475 31.8594 51.7613 31.6468C52.1866 31.1502 52.6131 30.6535 52.9683 30.0857C53.4649 29.3051 53.9616 28.5245 54.4582 27.6716C55.0973 27.6015 55.5939 27.6716 56.0204 28.1682C56.163 28.3096 56.3043 28.4521 56.4468 28.5947C56.9435 29.2338 57.0137 29.9431 57.0861 30.6535C57.0861 30.7949 57.0148 30.8662 56.9447 31.0076C56.6607 31.6468 56.3055 32.3561 55.9503 32.9952C55.7376 33.493 55.6663 33.9896 55.7376 34.4862C55.879 35.0541 56.0918 35.6932 56.3768 36.2611C56.5182 36.4738 56.7308 36.6163 57.0159 36.6163C57.5137 36.5451 58.0103 36.4738 58.5069 36.2611C58.9334 36.0473 59.43 35.8346 59.8553 35.5507C60.352 35.2667 60.8497 34.9828 61.4165 34.6276C61.7717 34.2724 62.1971 33.9884 62.5523 33.6332C63.4754 32.7101 64.895 30.3685 65.817 29.4454C65.8883 29.3741 65.9584 29.3741 66.0308 29.3028C66.5263 29.3764 66.8815 29.6603 67.2367 30.0155Z" fill="black" fill-opacity="0.5"/>
<path d="M89.2419 30.725C89.0292 31.0089 88.9578 32.0734 88.8877 32.4286C88.8164 32.6424 88.3911 32.8551 88.2486 32.9965C88.1072 33.423 85.7632 33.9909 85.5506 33.9909C84.8402 34.4173 82.9951 33.139 82.7813 33.0678C82.7813 33.0678 81.788 32.3573 81.7167 32.2872C81.6466 32.1458 80.5097 31.1514 80.3683 31.0089C79.7291 29.8019 79.3739 29.4478 78.7359 28.3109C78.0979 29.1627 78.2383 29.234 77.6715 30.3698C77.1036 31.4342 76.6771 32.57 75.9666 33.7058C75.754 33.8483 75.6839 34.061 75.5413 34.2024C75.3275 34.9128 74.9021 35.4807 74.3343 36.0475C73.9078 36.6153 73.6239 37.1832 73.34 37.8936C73.34 37.9638 73.2699 38.1765 73.2699 38.2477C73.34 38.7443 73.056 39.0995 72.8433 39.5249C72.4168 40.0226 72.0628 40.5193 71.7789 41.1573C71.3524 42.1516 70.9269 42.9322 69.9337 43.5713C69.7199 43.8553 69.436 43.9978 69.082 43.9978C68.8693 43.9978 68.5853 43.9978 68.3013 43.9266C67.9461 43.9266 67.5208 43.9978 67.023 44.068C66.0298 44.4944 65.0355 44.2105 64.6091 43.2161C64.3964 42.7184 62.1961 41.2285 61.8409 40.8733C61.3443 40.3767 60.5637 38.7443 60.7051 38.1052C60.7051 37.5373 60.8476 37.0407 60.9177 36.5441C61.2017 35.4796 61.3443 34.2013 61.6282 33.0655C61.8409 32.2137 61.9834 31.3607 62.1961 30.4388C62.6927 28.4512 63.0479 26.5348 63.5445 24.6887C63.8997 23.5529 64.1124 22.5585 64.3262 21.4239C64.3964 20.7847 64.3964 20.0754 64.6091 19.4363C64.6803 18.7259 64.609 19.0098 64.6803 18.4419C64.7505 18.2293 64.7504 18.0867 64.893 17.8741C65.1068 17.7315 65.3906 17.8039 65.6033 18.0166C65.6746 18.158 65.8874 18.3718 65.9586 18.4431C66.2426 18.7971 66.1011 18.8695 66.5977 18.8695C66.7402 18.8695 67.023 19.0822 67.023 19.1535C67.3782 19.7926 67.9461 20.1467 68.4427 20.5732C68.7267 21.1411 69.2234 21.4963 69.2946 22.2056C69.0118 22.2056 68.8693 22.2056 68.5854 22.1343C68.444 22.5608 68.3013 22.8447 68.514 23.3413C68.8692 24.0518 68.8693 24.8323 68.9406 25.6841C68.9406 26.0394 69.0118 26.3946 69.0118 26.6072C69.2946 27.4591 69.2946 28.3822 69.2946 29.234C69.2946 29.4478 69.2946 29.5892 69.2946 29.8019C69.3659 30.5123 69.3659 31.2216 69.3659 31.932C69.2946 32.4999 69.3659 33.0678 69.4371 33.5644C69.4371 34.061 69.4372 34.061 69.2245 34.5587L69.0118 34.4875C68.9405 34.1334 68.9405 33.8483 68.8704 33.5644C68.8704 33.4942 68.7279 33.423 68.6566 33.3517C68.5854 33.3517 68.5153 33.2092 68.444 33.3517C68.3727 33.3517 68.3026 33.4942 68.3026 33.5644C68.3026 34.3449 68.3025 35.0554 68.3726 35.7646C68.4439 36.1199 68.5153 36.5463 68.444 36.9004C68.3727 37.1844 68.444 37.397 68.5854 37.5396C68.6567 37.5396 68.8693 37.6108 68.9406 37.5396C69.0118 37.5396 69.0831 37.397 69.0118 37.2556C68.9405 36.9004 69.0831 36.4038 69.2245 35.9072C69.2245 35.9072 69.2946 35.837 69.3659 35.7646C69.3659 35.8359 69.4371 35.9072 69.4371 36.0486C69.5785 36.4751 69.5785 36.8303 69.5785 37.1844C69.6498 37.397 69.6498 37.4683 69.7199 37.6108C69.7199 37.7534 69.7912 37.8235 69.7912 37.8235C69.436 38.3201 69.8613 38.4627 69.9326 38.8179C70.074 38.7466 70.2165 38.6041 70.2867 38.5339C71.3512 37.2556 72.4168 36.0486 73.3388 34.5587C73.6928 34.061 74.0492 33.5644 74.4033 33.0678C74.8999 32.4286 75.2552 31.7193 75.5391 30.9388C75.6816 30.441 75.9644 29.803 76.2483 29.3765C77.0289 27.5303 77.1714 28.7374 77.6681 27.105C77.7382 26.8923 77.3129 25.2588 77.2416 24.976C77.2416 23.6275 76.8875 23.6988 77.7382 23.485C78.0221 23.485 79.3004 23.769 79.5131 23.9115C79.9396 24.1253 79.5833 24.1954 80.0811 24.1954C80.365 24.1253 80.5776 24.2667 80.7903 24.338C80.9317 24.4092 81.0041 24.4805 81.0742 24.6932C81.0742 24.8357 81.1455 24.907 81.2156 25.1197C81.6421 27.8878 81.926 28.4557 82.7066 30.3019C83.3457 30.7996 84.1263 32.7159 85.546 32.4309C86.2553 32.2182 86.6105 31.9343 87.3198 31.7917C87.9589 31.6503 88.4557 30.8686 89.0948 30.5146C89.1661 30.4433 89.2362 30.4433 89.3086 30.4433C89.3832 30.5836 89.3132 30.6548 89.2419 30.725ZM68.3704 30.2283L68.4416 30.3709C68.4416 30.441 68.5129 30.3709 68.5129 30.3709C68.5842 30.1571 68.5842 30.0168 68.6543 29.8743C68.6543 29.7317 68.6543 29.6605 68.6543 29.5191C68.583 29.4489 68.5129 29.3777 68.4416 29.4489C68.4416 29.5191 68.3704 29.6616 68.4416 29.6616C68.5129 29.7329 68.583 29.803 68.6543 29.8754C68.5842 30.0157 68.5129 30.1571 68.3704 30.2283ZM68.5129 30.8675C68.5129 30.7962 68.4416 30.7962 68.4416 30.7962C68.3704 30.7962 68.3704 30.8675 68.3704 30.8675C68.3704 31.0089 68.4416 31.0089 68.4416 31.0813C68.5129 31.0089 68.5129 30.8675 68.5129 30.8675ZM68.5841 31.5055C68.5841 31.5768 68.5841 31.5768 68.5841 31.5768C68.5841 31.5768 68.5841 31.5768 68.6554 31.5768C68.6543 31.5055 68.6543 31.5055 68.5841 31.5055ZM69.0096 38.5339C68.9383 38.6765 68.8682 38.6765 68.8682 38.7466C68.8682 38.7466 68.8681 38.8179 68.9382 38.8179C68.9382 38.8179 69.0096 38.7466 69.0809 38.7466C69.0096 38.6765 69.0096 38.6765 69.0096 38.5339ZM69.0809 37.8959C69.2234 37.8246 69.2234 37.6821 69.0809 37.612C69.0096 37.612 69.0096 37.612 69.0096 37.612C69.0096 37.6832 68.9382 37.7545 68.9382 37.8959C68.9382 37.8959 69.0096 37.8959 69.0096 38.0373L69.0809 37.8959Z" fill="black" fill-opacity="0.5"/>
<path d="M91.796 29.8016C91.796 29.9442 91.6535 30.0856 91.512 30.1569C91.4408 30.2281 91.2983 30.2983 91.2983 30.5121C91.227 30.796 91.1556 30.8673 90.943 30.9385C90.8004 31.0087 90.8004 31.0811 90.7303 31.5064C90.8717 31.5064 90.943 31.5064 91.0131 31.5777C91.0131 31.5777 91.0131 31.5777 91.0131 31.649C90.8717 31.649 90.7304 31.649 90.5165 31.649C90.5878 31.4363 90.5878 31.2225 90.5878 31.0822C90.5165 31.0822 90.4453 31.0822 90.4453 31.0822C90.374 31.5788 90.3039 32.0754 90.2315 32.5721C90.3741 32.6433 90.4453 32.7146 90.5154 32.7146C90.5867 33.2123 90.5867 33.6377 90.5867 34.1343C90.5867 34.6309 90.7292 35.0574 90.8695 35.4115C91.0833 35.6954 91.6512 37.2577 91.8639 37.5416C92.8583 38.536 94.0653 39.8131 95.1999 39.8844C95.554 39.9545 97.614 39.6005 97.9681 39.5292C99.6717 39.0326 101.304 38.1095 102.866 36.9025C104.073 35.9794 105.208 34.9149 106.415 33.9205C106.486 33.8504 106.556 33.778 106.629 33.7078C107.054 33.2112 107.481 32.7847 107.906 32.2881C108.686 31.5064 109.397 30.7259 110.036 29.8028C110.249 29.4487 110.463 29.0924 110.888 28.951C110.745 29.5901 110.604 30.1569 110.32 30.7247C110.249 30.9385 110.107 31.1512 109.966 31.2926C109.54 31.7892 109.184 32.2157 108.901 32.7836C108.688 33.0675 108.404 33.3515 108.191 33.6354C108.12 33.7067 108.049 33.8492 107.907 34.0619C108.12 33.9918 108.262 33.9194 108.475 33.8492C108.404 34.2757 108.048 34.3458 107.977 34.7011C108.048 34.7723 108.049 34.8425 108.191 34.9149C107.977 35.2701 107.765 35.4827 107.481 35.7667C107.054 36.1219 106.629 36.5484 106.274 36.9737C105.634 37.6841 104.925 38.252 104.216 38.8199C103.861 39.1038 103.577 39.3867 103.221 39.6005C102.938 39.8131 102.654 39.9557 102.37 40.1683C101.944 40.381 101.518 40.5937 101.093 40.8776C100.382 41.3041 99.6015 41.6582 98.8209 41.8007C98.6083 41.872 98.3945 41.9433 98.1818 42.0145C97.33 42.2985 96.4782 42.441 95.6263 42.5111C94.632 42.6537 90.4441 41.872 89.5222 41.5168C87.0368 40.5236 86.5402 39.3165 85.4044 38.3222C84.9791 37.9681 84.6239 37.3991 84.4113 36.8323C84.0561 35.9092 83.9847 34.9149 83.9146 33.8504C83.9146 31.649 84.4825 29.52 85.4044 27.5324C85.6182 27.1059 85.6182 27.1059 85.5458 26.4679C85.1906 26.6805 84.978 26.822 84.8366 27.2484C84.6228 27.8876 84.3388 28.4555 83.9847 29.0946C83.9847 28.4555 84.2687 28.0301 84.4814 27.5335C85.0493 26.2563 85.6884 25.0493 86.469 23.9135C87.2506 22.7065 88.1014 21.642 89.0957 20.6488C90.089 19.5843 91.1534 18.6612 92.2903 17.9508C92.5743 17.8082 92.787 17.7369 93.0008 17.5955C93.356 17.4541 93.71 17.3829 93.9238 17.7369C94.1365 17.9508 94.4205 17.8795 94.563 18.0209C94.7757 18.1623 94.8469 18.4474 94.9895 18.5888C95.6987 18.9429 98.3968 19.6533 99.0348 20.0797C99.2486 20.2212 99.39 20.5062 99.5325 20.7902C99.8866 21.4293 100.172 22.1386 100.668 22.564C100.81 22.7065 100.882 22.9904 100.952 23.2031C101.094 24.0549 101.165 24.8355 100.952 25.7586C100.81 26.7529 100.384 27.6749 99.8877 28.5279C99.6037 29.0245 99.3199 29.451 99.1072 30.0188C98.9658 30.5155 98.6807 30.9419 98.3967 31.4386C98.1128 32.0064 97.6163 32.3616 97.1196 32.503C96.6932 32.7157 96.1965 32.787 95.7712 32.7157C95.5574 32.6445 95.3446 32.7157 95.2032 32.4318C95.2032 32.3616 95.1331 32.3616 95.1331 32.3616C94.5652 32.4318 94.2101 31.7938 93.7847 31.5811C93.7135 31.5098 93.6421 31.2971 93.6421 31.2259C93.7846 30.9431 93.6421 30.8005 93.5708 30.5867C93.2869 30.02 93.0042 29.3797 92.6478 28.8129C92.5777 28.5991 92.3638 28.529 92.1511 28.7417C92.0787 29.0924 91.796 29.3763 91.796 29.8016ZM85.0515 36.1909C85.1227 36.4047 85.1928 36.5461 85.2641 36.7588C85.2641 36.9715 85.478 37.114 85.3355 37.3979C85.2642 37.3278 85.1929 37.3278 85.1929 37.2565C84.8376 36.5472 84.6963 35.6241 84.5538 34.7011C84.4825 34.6309 84.5538 34.5596 84.5538 34.4884C84.5538 33.4239 84.5537 32.4295 84.8377 31.365C84.909 31.1523 84.9802 30.9397 84.9802 30.7259C84.9802 30.5845 84.9802 30.5132 84.9802 30.2293C84.7664 30.6557 84.625 30.9397 84.5538 31.2225C84.4825 31.5777 84.4124 31.8616 84.34 32.2168C84.0572 34.063 84.1273 35.7656 84.9078 37.2565C85.0504 37.5405 85.263 37.7543 85.4757 38.0382C85.6182 38.1796 85.7597 38.2509 85.9724 38.321C85.9724 38.3923 86.0436 38.321 86.1861 38.321C85.9723 37.9669 85.7597 37.6819 85.6183 37.3278C85.4045 36.9013 85.4044 36.476 85.1918 36.1208C85.1227 36.1208 85.0515 36.1909 85.0515 36.1909ZM85.0515 31.6478C84.6962 32.7836 84.7675 33.8492 84.9089 34.9137C84.9089 34.9839 84.9802 34.9839 85.0515 35.0551C85.1227 34.2746 85.1928 33.5642 85.2641 32.8537C85.3354 32.3571 85.4067 31.8605 85.1929 31.434C85.1227 31.5053 85.0515 31.5766 85.0515 31.6478ZM90.0923 33.4227C90.0923 33.494 90.0923 33.494 90.0923 33.5642C90.0923 33.494 90.0923 33.494 90.0923 33.4227ZM93.9962 25.969C93.8548 26.1817 93.641 26.4656 93.4996 26.7496C93.2156 27.2462 93.2858 27.6014 93.641 27.8141C93.8537 27.9566 94.1377 28.098 94.2802 28.3107C94.7067 28.8084 95.2746 28.7371 95.8413 28.6659C96.3391 28.5233 96.6932 28.0267 96.9782 27.5301C97.4749 26.3231 97.7587 26.1104 98.1852 24.9034C99.3209 22.2054 97.0495 22.8445 95.9838 23.6963C95.2033 24.2653 94.6353 25.1884 93.9962 25.969Z" fill="black" fill-opacity="0.5"/>
<path d="M129.278 32.9964C128.923 33.7068 127.716 35.2679 127.716 36.0485C127.645 36.1198 127.432 36.3324 127.29 36.4037C127.077 36.6164 126.863 36.9003 126.722 37.2555C126.581 37.6107 126.368 37.7533 126.225 38.0372C125.232 39.811 124.593 40.8054 122.961 42.3665C122.534 42.7217 118.772 46.3417 118.488 46.6969C116.429 48.4005 113.661 47.62 111.602 47.6901C111.034 47.6901 110.466 47.62 110.111 47.4062C109.472 47.0521 108.052 46.4831 107.626 45.8451C106.986 44.2839 105.354 43.2183 105.211 41.018C105.141 40.4502 104.857 40.095 104.786 39.5271C104.856 37.2555 105.211 34.984 105.495 32.6412C105.922 31.0077 106.276 29.2328 106.56 27.6015C107.27 24.5483 107.483 24.1931 108.831 21.4249C109.542 19.5787 110.18 19.4373 110.89 17.5912C111.387 16.5979 111.955 15.6036 112.523 14.7517C112.948 13.6872 113.658 12.6929 114.296 11.6284C115.645 9.28671 117.136 7.22672 118.698 5.52307C119.763 4.45857 120.899 3.32167 121.964 2.39971C122.603 1.90309 123.241 1.33521 123.882 1.12253C124.094 0.979998 124.307 0.90873 124.521 0.838593C125.514 0.767325 126.438 0.909861 127.147 1.61915C127.858 2.2583 128.071 3.25266 127.858 4.6011C127.716 5.45293 127.645 6.30475 127.431 7.08531C127.361 7.72446 127.076 8.29235 126.721 9.00277C126.224 10.2098 125.656 11.3444 124.876 12.4813C124.379 13.4044 123.811 14.3264 123.315 15.2495C122.463 16.5267 121.754 17.8762 120.901 19.0833C119.41 21.0709 118.133 23.201 116.783 25.1886C114.582 28.9511 114.795 29.5902 114.015 33.3527C113.731 34.8426 113.873 35.6956 113.801 37.1865C113.872 37.613 114.085 40.3812 114.156 40.6651C114.37 41.6583 114.583 42.0135 115.008 42.9366C115.149 43.2206 116.144 43.4333 116.499 43.5758C116.996 43.931 120.758 41.3755 121.255 41.0203C122.391 40.3812 123.314 39.3167 124.307 38.3223C125.371 37.3291 125.869 36.1922 126.792 34.8437C128.069 33.1401 128.496 31.7204 129.844 29.8753C130.84 29.7316 130.272 31.2215 129.278 32.9964ZM117.92 20.219C120.191 16.5991 120.547 16.03 122.605 12.1261C123.386 10.6363 124.025 9.1453 124.807 7.65433C125.161 6.58983 125.374 5.5242 125.516 4.4597C125.657 4.10449 125.658 3.89182 125.303 4.03322C124.948 4.10336 124.736 4.24589 124.523 4.38843C123.6 4.74364 122.748 5.45293 122.109 6.44729C121.612 7.01517 121.257 7.65433 120.689 8.22221C120.05 9.00277 119.695 9.78332 119.411 10.7064C119.057 11.4168 118.7 12.2675 118.346 12.978C117.85 14.4689 117.139 15.9599 116.429 17.4509C116.146 18.1602 115.932 18.9407 115.648 19.6511C114.796 22.0652 115.152 20.8582 114.371 23.2711C114.157 23.839 114.3 25.4725 115.223 24.4782C116.286 22.917 116.997 21.8525 117.92 20.219Z" fill="black" fill-opacity="0.5"/>
</svg>
