<svg width="172" height="46" viewBox="0 0 172 46" fill="none" xmlns="http://www.w3.org/2000/svg">
<path d="M171.453 30.8629C165.165 30.6322 158.852 31.1016 154.176 29.5315C152.603 29.4738 155.831 26.7961 154.305 25.3391C152.732 25.2814 149.586 25.166 148.011 25.1083C146.504 22.9578 149.715 20.9781 148.204 18.8242C146.697 16.6726 140.363 17.8389 138.832 16.3842C134.152 14.8163 142.043 14.4056 146.76 14.5787C145.232 13.1239 149.906 14.6941 149.949 13.297C150.035 10.504 150.12 7.7098 143.894 5.38509C142.341 4.62829 143.979 2.59093 144.021 1.19497C125.148 0.503785 104.701 -0.245098 85.7431 1.85901C69.951 3.37827 51.0174 -0.323153 35.3678 1.41217C30.6268 1.9382 22.8506 -1.14444 19.5994 2.23232C21.1707 2.29002 22.7443 2.34771 24.3156 2.4054C19.535 4.32851 14.8799 2.06037 10.1411 2.58527C10.0981 3.98348 10.0778 4.68146 8.48159 5.32288C11.6276 5.43826 16.3663 4.9111 19.4931 5.7256L19.4286 7.8184C16.2589 8.40325 11.5846 6.83308 8.41711 7.41567C8.39562 8.11591 8.35263 9.513 8.33113 10.211C8.30964 10.9089 6.73608 10.8513 5.16479 10.7936C6.73608 10.8513 9.88433 10.9666 11.4556 11.0243C11.4341 11.7223 11.3911 13.1194 11.3697 13.8162C11.3482 14.5165 9.77686 14.4588 8.20217 14.4011C8.15919 15.797 6.54377 17.1364 8.0947 17.8921C9.66939 17.9498 11.2407 18.0075 12.8142 18.0652C6.50079 18.5335 3.24733 21.9103 3.18285 24.0053C4.77904 23.3639 4.71455 25.4601 6.30734 24.8187C1.52558 26.7407 -3.2788 29.3618 2.99054 30.2883C57.9746 34.4003 114.681 33.6797 169.774 34.2985C172.944 33.7137 171.41 32.26 171.453 30.8629Z" fill="black" fill-opacity="0.5"/>
<path d="M18.8471 19.0731V24.6003H15.3855V10.3885H20.9942C22.6402 10.3885 23.923 10.8139 24.8404 11.6635C25.7579 12.5142 26.2171 13.5402 26.2171 14.7416C26.2171 15.564 25.9671 16.3683 25.4683 17.1511C24.9682 17.9328 24.1526 18.4871 23.018 18.8118L26.4999 24.6015H22.4512L19.2521 19.0742H18.8471V19.0731ZM18.8471 13.0209V16.4418H20.9931C21.5191 16.4418 21.9343 16.2868 22.2386 15.9758C22.5417 15.6658 22.6945 15.2574 22.6945 14.7506C22.6945 14.2438 22.5395 13.8298 22.2284 13.5051C21.9173 13.1816 21.5055 13.0198 20.9931 13.0198H18.8471V13.0209Z" fill="white"/>
<path d="M43.1201 10.3477V12.9801H37.9775V16.0367H42.5126V18.668H37.9775V21.9678H43.1201V24.5991H34.5159V10.3477H43.1201Z" fill="white"/>
<path d="M51.7041 24.6001V10.3883H60.9565V13.0207H55.1668V16.0773H59.4995V18.7086H55.1668V24.6001H51.7041Z" fill="white"/>
<path d="M72.4147 19.0728V24.6001H68.9531V10.3883H74.5618C76.2078 10.3883 77.4906 10.8137 78.408 11.6632C79.3255 12.5139 79.7848 13.5399 79.7848 14.7413C79.7848 15.5637 79.5348 16.3681 79.0359 17.1509C78.5359 17.9326 77.7202 18.4869 76.5867 18.8115L80.0687 24.6012H76.02L72.822 19.074H72.4147V19.0728ZM72.4147 13.0207V16.4416H74.5607C75.0867 16.4416 75.5019 16.2866 75.8062 15.9755C76.1094 15.6655 76.2621 15.2572 76.2621 14.7504C76.2621 14.2436 76.1071 13.8295 75.796 13.5049C75.4849 13.1813 75.0731 13.0196 74.5607 13.0196H72.4147V13.0207Z" fill="white"/>
<path d="M96.6889 10.3477V12.9801H91.5463V16.0367H96.0815V18.668H91.5463V21.9678H96.6889V24.5991H88.0847V10.3477H96.6889Z" fill="white"/>
<path d="M110.091 12.919C109.659 12.919 109.304 13.0344 109.028 13.2629C108.752 13.4926 108.613 13.8229 108.613 14.255C108.613 14.6872 108.741 15.0344 108.998 15.2969C109.255 15.5605 109.588 15.763 110 15.9044C110.412 16.0458 110.871 16.1804 111.377 16.3094C111.883 16.4372 112.386 16.5922 112.885 16.7743C113.384 16.9564 113.84 17.1827 114.251 17.453C114.663 17.7223 114.997 18.1035 115.254 18.5967C115.509 19.09 115.638 19.6793 115.638 20.3683C115.638 21.5696 115.15 22.5991 114.171 23.4554C113.193 24.3129 111.904 24.7405 110.305 24.7405C108.705 24.7405 107.416 24.3559 106.438 23.5866C105.459 22.8174 104.971 21.7235 104.971 20.3072H108.655C108.749 21.4407 109.329 22.0086 110.396 22.0086C110.895 22.0086 111.286 21.8762 111.57 21.6138C111.853 21.3513 111.996 21.0165 111.996 20.6126C111.996 20.2076 111.867 19.8773 111.611 19.6194C111.354 19.3626 111.021 19.1612 110.609 19.0119C110.197 18.8637 109.738 18.7257 109.232 18.5967C108.726 18.4678 108.223 18.3094 107.724 18.1205C107.225 17.9316 106.769 17.7053 106.358 17.4417C105.946 17.1782 105.612 16.8003 105.355 16.3082C105.099 15.815 104.971 15.2313 104.971 14.5571C104.971 13.2346 105.463 12.1747 106.448 11.3783C107.433 10.583 108.692 10.1848 110.224 10.1848C111.756 10.1848 112.995 10.5321 113.939 11.2267C114.884 11.9213 115.377 13.0186 115.417 14.5163H111.651C111.596 14.0039 111.431 13.6091 111.155 13.3319C110.877 13.057 110.523 12.919 110.091 12.919Z" fill="white"/>
<path d="M132.927 10.3883H136.389V24.6001H132.927V18.7086H127.441V24.6001H123.979V10.3883H127.441V16.0773H132.927V10.3883Z" fill="white"/>
<path d="M43.2899 39.5813V45.2036H41.9199V42.0316L40.6145 45.2036H39.5975L38.2921 42.0316V45.2036H36.9221V39.5813H38.4923L40.11 43.4581L41.7197 39.5813H43.2899Z" fill="black" fill-opacity="0.5"/>
<path d="M52.7731 45.2027L52.4609 44.257H50.4428L50.1294 45.2027H48.6724L50.626 39.5646H52.2923L54.2381 45.2027H52.7731ZM50.7867 43.2163H52.1159L51.4507 41.214L50.7867 43.2163Z" fill="black" fill-opacity="0.5"/>
<path d="M60.1284 44.4368C59.5707 43.8949 59.2913 43.2071 59.2913 42.3745C59.2913 41.5408 59.5707 40.8541 60.1284 40.3123C60.6861 39.7704 61.3682 39.4989 62.1748 39.4989C62.7992 39.4989 63.3547 39.6652 63.84 39.9955C64.3253 40.327 64.6647 40.7863 64.857 41.3734H63.2235C63.0097 40.9627 62.668 40.7568 62.1986 40.7568C61.7291 40.7568 61.3592 40.9039 61.0888 41.1969C60.8184 41.491 60.685 41.8824 60.685 42.3745C60.685 42.8666 60.8196 43.258 61.0888 43.551C61.358 43.8451 61.72 43.9922 62.1748 43.9922C62.5006 43.9922 62.7653 43.9107 62.9712 43.7478C63.1759 43.5849 63.314 43.3666 63.383 43.0951H61.797V42.0532H64.8558V43.0951C64.754 43.6076 64.4746 44.085 64.0153 44.5284C63.797 44.7422 63.5255 44.9153 63.2031 45.0488C62.8796 45.1823 62.5368 45.249 62.1737 45.249C61.3694 45.2501 60.6861 44.9786 60.1284 44.4368Z" fill="black" fill-opacity="0.5"/>
<path d="M74.02 45.2027L73.7078 44.257H71.6897L71.3775 45.2027H69.9204L71.8741 39.5646H73.5404L75.4861 45.2027H74.02ZM72.0336 43.2163H73.3628L72.6976 41.214L72.0336 43.2163Z" fill="black" fill-opacity="0.5"/>
<path d="M84.6402 39.5804V40.6223L82.2453 44.1619H84.6402V45.2027H80.6672V44.1608L83.0621 40.6211H80.6672V39.5804H84.6402Z" fill="black" fill-opacity="0.5"/>
<path d="M90.3506 45.2027V39.5804H91.7205V45.2027H90.3506Z" fill="black" fill-opacity="0.5"/>
<path d="M101.291 39.5646H102.66V45.2027H101.291L99.0001 41.654V45.2027H97.6301V39.5646H99.0001L101.291 43.1122V39.5646Z" fill="black" fill-opacity="0.5"/>
<path d="M111.974 39.5646V40.6054H109.94V41.8147H111.735V42.8554H109.94V44.1609H111.974V45.2027H108.571V39.5646H111.974Z" fill="black" fill-opacity="0.5"/>
</svg>
