<svg width="171" height="48" viewBox="0 0 171 48" fill="none" xmlns="http://www.w3.org/2000/svg">
<path d="M154.916 30.021H153.126L153.893 23.1396H147.273L146.515 30.021H144.725L146.401 14.9415H148.181L147.434 21.7075H154.054L154.801 14.9415H156.582L154.916 30.021Z" fill="black" fill-opacity="0.5"/>
<path d="M170.578 21.4232C170.578 22.7072 170.4 23.8769 170.042 24.9324C169.686 25.9889 169.193 26.8928 168.564 27.6473C167.936 28.4019 167.187 28.9856 166.321 29.3996C165.452 29.8137 164.506 30.0207 163.484 30.0207H158.796L160.471 14.9412H165.15C165.982 14.9412 166.736 15.0996 167.409 15.4141C168.081 15.7297 168.651 16.1731 169.118 16.7456C169.585 17.318 169.945 18.0012 170.197 18.7976C170.451 19.594 170.578 20.4696 170.578 21.4232ZM168.758 21.4651C168.758 20.7072 168.672 20.0239 168.498 19.413C168.325 18.8022 168.076 18.2852 167.751 17.861C167.426 17.4367 167.029 17.1109 166.562 16.8824C166.094 16.6539 165.567 16.5408 164.981 16.5408H162.082L160.756 28.4313H163.655C164.412 28.4313 165.103 28.2718 165.729 27.9528C166.355 27.6338 166.89 27.1745 167.339 26.5738C167.788 25.9731 168.136 25.2446 168.386 24.3848C168.634 23.5262 168.758 22.5522 168.758 21.4651Z" fill="black" fill-opacity="0.5"/>
<path d="M64.4909 26.0535C64.5656 26.0535 64.6425 26.0693 64.7172 26.101C64.793 26.1326 64.8665 26.1869 64.9343 26.2639L66.2036 27.7481C65.6482 28.5546 64.9524 29.1632 64.1153 29.5739C63.2782 29.9845 62.2895 30.1893 61.1458 30.1893C60.0983 30.1893 59.1594 29.9913 58.329 29.5942C57.4987 29.1983 56.7951 28.6508 56.217 27.9528C55.6389 27.2548 55.1967 26.4268 54.8867 25.4697C54.5779 24.5116 54.4229 23.472 54.4229 22.3498C54.4229 21.2061 54.5993 20.1563 54.9534 19.1981C55.3075 18.24 55.8007 17.4142 56.4365 16.7196C57.0711 16.025 57.8291 15.4854 58.7137 15.0996C59.5972 14.7139 60.5734 14.5204 61.6402 14.5204C62.1583 14.5204 62.6459 14.5714 63.104 14.6732C63.561 14.775 63.9886 14.9153 64.3868 15.094C64.785 15.2727 65.1516 15.4877 65.4864 15.7354C65.8213 15.9843 66.1176 16.2603 66.3767 16.5612L65.2963 18.171C65.2262 18.2694 65.1447 18.3587 65.0497 18.4391C64.9558 18.5194 64.8235 18.5601 64.6515 18.5601C64.5373 18.5601 64.4309 18.533 64.3303 18.4764C64.2285 18.4198 64.121 18.352 64.0079 18.2705C63.8948 18.1891 63.7703 18.1031 63.6346 18.0081C63.4988 17.9142 63.337 17.8259 63.1515 17.7456C62.9649 17.6653 62.7477 17.5963 62.4977 17.5397C62.2477 17.4843 61.9558 17.456 61.6221 17.456C61.0406 17.456 60.5112 17.5703 60.0316 17.7977C59.5508 18.0262 59.1401 18.352 58.7951 18.7762C58.4512 19.2004 58.1831 19.7151 57.9897 20.3181C57.7974 20.921 57.7012 21.5986 57.7012 22.3486C57.7012 23.1349 57.7974 23.8328 57.9897 24.4426C58.1831 25.0534 58.4444 25.567 58.7759 25.9845C59.1073 26.4019 59.4942 26.7198 59.9354 26.937C60.3777 27.1542 60.8517 27.2639 61.3563 27.2639C61.647 27.2639 61.9117 27.248 62.1515 27.2164C62.3914 27.1847 62.6142 27.1304 62.8201 27.0535C63.0249 26.9766 63.2205 26.8759 63.4072 26.7537C63.5938 26.6315 63.7816 26.4788 63.9705 26.2955C64.0463 26.2254 64.1289 26.1677 64.2172 26.1225C64.3054 26.0772 64.3959 26.0535 64.4909 26.0535Z" fill="black" fill-opacity="0.5"/>
<path d="M81.7536 22.3485C81.7536 23.4572 81.5816 24.4889 81.2377 25.4425C80.8927 26.3961 80.4096 27.2265 79.7841 27.9312C79.1585 28.636 78.4051 29.188 77.525 29.5885C76.6449 29.989 75.6675 30.1881 74.5939 30.1881C73.5204 30.1881 72.543 29.9878 71.6572 29.5885C70.7737 29.188 70.018 28.636 69.3891 27.9312C68.7612 27.2253 68.276 26.3961 67.9309 25.4425C67.587 24.4889 67.415 23.4572 67.415 22.3485C67.415 21.2411 67.587 20.2094 67.9309 19.2557C68.276 18.3021 68.7612 17.474 69.3891 16.7727C70.018 16.0713 70.7737 15.5204 71.6572 15.121C72.5418 14.7206 73.5192 14.5215 74.5939 14.5215C75.6686 14.5215 76.6449 14.7228 77.525 15.1267C78.4051 15.5306 79.1585 16.0826 79.7841 16.784C80.4096 17.4853 80.8927 18.3134 81.2377 19.267C81.5816 20.2195 81.7536 21.2478 81.7536 22.3485ZM78.4775 22.3485C78.4775 21.5917 78.3893 20.9096 78.2128 20.3021C78.0363 19.6958 77.7818 19.1811 77.4503 18.7602C77.1189 18.3394 76.7128 18.017 76.2331 17.793C75.7535 17.5679 75.2071 17.4559 74.5951 17.4559C73.9763 17.4559 73.4254 17.5679 72.9423 17.793C72.4593 18.017 72.052 18.3394 71.7206 18.7602C71.3891 19.1811 71.1346 19.6958 70.9581 20.3021C70.7816 20.9096 70.6934 21.5917 70.6934 22.3485C70.6934 23.1133 70.7816 23.7988 70.9581 24.4063C71.1346 25.0126 71.3891 25.5273 71.7206 25.9482C72.052 26.369 72.4593 26.6903 72.9423 26.9108C73.4254 27.1314 73.9763 27.2423 74.5951 27.2423C75.2071 27.2423 75.7535 27.1314 76.2331 26.9108C76.7128 26.6903 77.1189 26.369 77.4503 25.9482C77.7818 25.5273 78.0363 25.0126 78.2128 24.4063C78.3893 23.7988 78.4775 23.1144 78.4775 22.3485Z" fill="black" fill-opacity="0.5"/>
<path d="M91.6882 23.8429C91.8058 24.1302 91.9167 24.4255 92.0242 24.7275C92.1328 24.4187 92.2448 24.1178 92.3658 23.827C92.4857 23.5363 92.609 23.2535 92.7346 22.9786L96.2777 15.2251C96.341 15.0916 96.4043 14.9886 96.471 14.9151C96.5378 14.8416 96.6113 14.7873 96.6939 14.7511C96.7754 14.716 96.8682 14.699 96.9734 14.699C97.0774 14.699 97.1985 14.699 97.3376 14.699H99.78V30.0194H96.9586V21.2014C96.9586 20.7738 96.9779 20.31 97.0152 19.8122L93.3601 27.6936C93.2459 27.9391 93.0944 28.1246 92.9009 28.2513C92.7086 28.3769 92.4902 28.4402 92.2436 28.4402H91.807C91.5603 28.4402 91.342 28.3769 91.1486 28.2513C90.9563 28.1246 90.8035 27.9391 90.6904 27.6936L87.0162 19.8009C87.0399 20.0464 87.0591 20.2908 87.0727 20.5317C87.0852 20.7738 87.092 20.9967 87.092 21.2003V30.0183H84.2695V14.699H86.713C86.8521 14.699 86.9732 14.699 87.0773 14.699C87.1825 14.699 87.2752 14.7171 87.3567 14.7511C87.4381 14.7861 87.5139 14.8416 87.5795 14.9151C87.6451 14.9886 87.7096 15.0927 87.773 15.2251L91.3251 23.0091C91.4495 23.2772 91.5717 23.5544 91.6882 23.8429Z" fill="black" fill-opacity="0.5"/>
<path d="M111.93 14.6888V17.4241H106.267V21.0022H110.604V23.6324H106.267V27.284H111.93V30.0194H103.046V14.6888H111.93Z" fill="black" fill-opacity="0.5"/>
<path d="M127.215 22.3484C127.215 23.457 127.044 24.4797 126.699 25.4152C126.355 26.3519 125.871 27.1619 125.246 27.8463C124.621 28.5295 123.868 29.0635 122.988 29.4458C122.107 29.8282 121.129 30.0194 120.056 30.0194H114.696V14.6888H120.056C121.129 14.6888 122.107 14.8811 122.988 15.2668C123.868 15.6526 124.621 16.1865 125.246 16.8664C125.871 17.5474 126.355 18.3551 126.699 19.2918C127.043 20.2285 127.215 21.2477 127.215 22.3484ZM123.938 22.3484C123.938 21.5916 123.85 20.9072 123.673 20.2975C123.497 19.6866 123.242 19.1696 122.911 18.7454C122.579 18.3212 122.174 17.9943 121.694 17.7669C121.214 17.5384 120.668 17.4253 120.056 17.4253H117.915V27.2852H120.056C120.668 27.2852 121.214 27.1709 121.694 26.9435C122.174 26.715 122.579 26.3892 122.911 25.965C123.242 25.5408 123.497 25.0227 123.673 24.4129C123.85 23.8032 123.938 23.1143 123.938 22.3484Z" fill="black" fill-opacity="0.5"/>
<path d="M135.527 24.1901V30.0194H132.327V24.1901L127.326 14.6888H130.148C130.425 14.6888 130.646 14.7601 130.811 14.9038C130.976 15.0475 131.109 15.2318 131.209 15.4558L133.161 19.9174C133.319 20.2749 133.464 20.6052 133.596 20.9062C133.729 21.2082 133.846 21.5057 133.948 21.801C134.042 21.4989 134.156 21.198 134.289 20.896C134.421 20.5939 134.563 20.2681 134.715 19.9174L136.647 15.4558C136.684 15.3642 136.736 15.2737 136.803 15.1821C136.87 15.0904 136.946 15.009 137.031 14.9343C137.115 14.8608 137.214 14.8008 137.325 14.7556C137.436 14.7092 137.557 14.6866 137.689 14.6866H140.531L135.527 24.1901Z" fill="black" fill-opacity="0.5"/>
<path d="M14.9697 47.374V16.4266L43.7214 31.8997L14.9697 47.374Z" fill="black" fill-opacity="0.5"/>
<path d="M0.59375 39.6477V8.70148L29.3454 24.1746L0.59375 39.6477Z" fill="#332E2E"/>
<path d="M14.9697 31.8997V0.953491L43.7214 16.4266L14.9697 31.8997Z" stroke="black" stroke-opacity="0.5" stroke-width="1.0221" stroke-miterlimit="10"/>
</svg>
