<svg width="25" height="24" viewBox="0 0 25 24" fill="none" xmlns="http://www.w3.org/2000/svg">
<path d="M17.8652 2H7.86523C5.10381 2 2.86523 4.23858 2.86523 7V17C2.86523 19.7614 5.10381 22 7.86523 22H17.8652C20.6267 22 22.8652 19.7614 22.8652 17V7C22.8652 4.23858 20.6267 2 17.8652 2Z" stroke="#fff" stroke-width="2" stroke-linecap="round" stroke-linejoin="round"/>
<path d="M16.8652 11.3698C16.9886 12.2021 16.8464 13.052 16.4589 13.7988C16.0714 14.5456 15.4583 15.1512 14.7068 15.5295C13.9553 15.9077 13.1036 16.0394 12.273 15.9057C11.4423 15.7721 10.6749 15.3799 10.08 14.785C9.4851 14.1901 9.09292 13.4227 8.95925 12.592C8.82559 11.7614 8.95725 10.9097 9.33551 10.1582C9.71377 9.40667 10.3194 8.79355 11.0662 8.40605C11.813 8.01856 12.6629 7.8764 13.4952 7.99981C14.3441 8.1257 15.13 8.52128 15.7369 9.12812C16.3437 9.73496 16.7393 10.5209 16.8652 11.3698Z" stroke="#fff" stroke-width="2" stroke-linecap="round" stroke-linejoin="round"/>
<path d="M18.3652 6.5H18.3752" stroke="#fff" stroke-width="2" stroke-linecap="round" stroke-linejoin="round"/>
</svg>
