<svg width="138" height="55" viewBox="0 0 138 55" fill="none" xmlns="http://www.w3.org/2000/svg">
<path d="M40.3177 37.7268L0.293213 20.5715V0.559814L40.3177 17.714V37.7268Z" fill="black" fill-opacity="0.5"/>
<path d="M40.7271 17.4777L0.702637 34.6319V54.6447L40.7271 37.4894V17.4777Z" fill="black" fill-opacity="0.5"/>
<path d="M40.6186 37.4428L17.4972 27.5332C17.4531 27.5139 17.4531 27.4517 17.4972 27.4336L40.6186 17.5239C40.6696 17.5024 40.7261 17.5398 40.7261 17.5952V37.3727C40.7272 37.4281 40.6707 37.4655 40.6186 37.4428Z" fill="#332E2E"/>
<path d="M65.4664 18.9735V20.3378C65.4664 20.7303 65.3001 20.9622 64.946 21.0538C64.9245 21.0538 64.8838 21.0776 64.8215 21.0776C64.7593 21.0776 64.6553 21.124 64.5105 21.1466C64.3645 21.1704 64.1564 21.2167 63.9075 21.2631V35.6853H62.4516C62.2231 35.6853 62.0557 35.6389 61.9097 35.5699C61.7638 35.4998 61.619 35.3618 61.4731 35.1536L53.6109 24.0358C53.6324 24.2903 53.6517 24.5211 53.6517 24.7519C53.6517 24.9826 53.6732 25.2145 53.6732 25.4216V33.3957C54.5465 33.5348 54.9831 33.6038 55.025 33.6038C55.3791 33.6966 55.5454 33.9274 55.5454 34.3199V35.6842H53.6732H51.2184H49.6392V34.3199C49.6392 33.9274 49.8043 33.6955 50.1584 33.6038C50.1799 33.6038 50.2218 33.6038 50.2828 33.5801C50.3462 33.5563 50.4491 33.5337 50.5951 33.5111C50.7399 33.4873 50.9695 33.4409 51.2184 33.3946V21.262C50.9695 21.2156 50.7399 21.1692 50.5951 21.1455C50.4491 21.1217 50.3451 21.0765 50.2828 21.0765C50.2206 21.0765 50.1787 21.0527 50.1584 21.0527C49.8043 20.9599 49.6392 20.7292 49.6392 20.3366V18.9724H51.2184H52.6743C52.7987 18.9724 52.9039 18.9961 52.9865 18.9961C53.0691 18.9961 53.1528 19.0199 53.215 19.0651C53.2772 19.0889 53.3394 19.1353 53.4017 19.2043C53.465 19.2744 53.5261 19.366 53.6109 19.4825L61.5138 30.6456C61.4935 30.3685 61.4731 30.114 61.4516 29.8594C61.4301 29.6049 61.4301 29.3515 61.4301 29.1196V21.262C60.5568 21.1228 60.1201 21.0538 60.0783 21.0538C59.7242 20.9611 59.559 20.7303 59.559 20.3378V18.9735H61.4301H63.9052H65.4664Z" fill="black" fill-opacity="0.5"/>
<path d="M79.2449 18.9733V20.591V21.4462V23.3648H79.1408H78.8908H78.0378C77.7675 23.3648 77.6227 23.203 77.5593 22.9259C77.5378 22.7415 77.4767 22.2562 77.4134 21.4462H72.5672V26.0684H77.6634V28.4723H72.5672V33.1874H77.4134C77.4767 32.3785 77.5378 31.8932 77.5593 31.7077C77.6227 31.4305 77.7675 31.2688 78.0378 31.2688H78.8908H79.1408H79.2449V33.1874V34.0652V35.6829H69.7594H68.1802V34.3186C68.1802 33.9261 68.3454 33.6942 68.6994 33.6025C68.7209 33.6025 68.7628 33.5788 68.8239 33.5788C68.8872 33.5788 68.9901 33.5324 69.1361 33.5098C69.2809 33.486 69.5105 33.4396 69.7594 33.3932V21.2618C69.5105 21.2154 69.2809 21.169 69.1361 21.1453C68.9901 21.1215 68.8861 21.0763 68.8239 21.0763C68.7616 21.0763 68.7198 21.0525 68.6994 21.0525C68.3454 20.9598 68.1802 20.729 68.1802 20.3364V18.9722H69.7594H79.2449V18.9733Z" fill="black" fill-opacity="0.5"/>
<path d="M104.9 18.9733V20.3376C104.9 20.7301 104.734 20.962 104.38 21.0537C104.358 21.0537 104.297 21.0774 104.151 21.1001C104.005 21.1227 103.819 21.1691 103.569 21.2154L99.5122 35.684H96.9952L93.7089 24.2664C93.6682 24.1273 93.6263 23.9655 93.5845 23.8037C93.5438 23.642 93.4804 23.4338 93.4397 23.2494C93.3978 23.4349 93.356 23.642 93.3153 23.8037C93.2734 23.9893 93.2315 24.1273 93.1908 24.2664L89.8627 35.684H87.3457L83.3105 21.2154C83.0605 21.1691 82.8535 21.1227 82.7076 21.1001C82.5617 21.0763 82.4995 21.0537 82.4791 21.0537C82.125 20.9609 81.9587 20.7301 81.9587 20.3376V18.9733H82.6872H83.5402H85.0176H87.5765V20.3376C87.5765 20.7301 87.4102 20.962 87.0561 21.0537C87.0346 21.0537 86.9939 21.0537 86.952 21.0774C86.9113 21.1012 86.8276 21.1238 86.7235 21.1464C86.6194 21.1691 86.495 21.1928 86.3694 21.2392L88.512 29.676C88.5754 29.9305 88.6364 30.2077 88.6998 30.4848C88.7405 30.762 88.8039 31.0855 88.8457 31.4091C88.9079 31.0855 88.9702 30.762 89.0324 30.4848C89.0946 30.1839 89.1568 29.9305 89.2405 29.676L92.1942 19.6905C92.2564 19.505 92.3594 19.3432 92.5268 19.2052C92.6942 19.0672 92.8809 18.9745 93.1094 18.9745H93.9408C94.1908 18.9745 94.3786 19.0208 94.5438 19.16C94.7101 19.2991 94.8142 19.4835 94.8775 19.6917L97.8097 29.6771C97.9556 30.1624 98.1016 30.7168 98.2056 31.3186C98.2475 31.0177 98.2882 30.7405 98.3516 30.4634C98.3934 30.1862 98.4556 29.909 98.5179 29.6783L100.66 21.2652C100.452 21.2188 100.162 21.1487 99.8075 21.0571C99.4534 20.9654 99.2871 20.7335 99.2871 20.341V18.9767H101.992H103.323H104.197H104.9V18.9733Z" fill="black" fill-opacity="0.5"/>
<path d="M116.968 30.4598C116.968 31.2223 116.844 31.8931 116.614 32.5628C116.385 33.2336 116.052 33.8117 115.595 34.2959C115.158 34.7812 114.596 35.1737 113.952 35.452C113.308 35.7291 112.579 35.8683 111.748 35.8683H111.435C110.104 35.8683 108.67 35.5674 107.13 34.9904V34.5741V30.6906H107.212H107.462H108.315C108.586 30.6906 108.732 30.8297 108.794 31.1069C108.836 31.315 108.898 31.9621 108.982 33.0255C109.585 33.2336 110.542 33.3264 111.831 33.3264C112.622 33.3264 113.245 33.1182 113.683 32.7019C114.12 32.2856 114.327 31.6849 114.327 30.8987C114.327 30.4598 114.223 30.0899 114.036 29.8127C113.848 29.5356 113.579 29.3037 113.245 29.1193C112.913 28.9349 112.56 28.7731 112.142 28.634C111.727 28.4948 111.291 28.3795 110.874 28.2177C110.438 28.0559 110.021 27.8715 109.605 27.6634C109.19 27.4552 108.815 27.1555 108.483 26.8082C108.149 26.4609 107.9 26.0457 107.712 25.514C107.526 25.005 107.401 24.359 107.401 23.5954C107.401 22.9947 107.505 22.3929 107.734 21.816C107.942 21.2379 108.275 20.7062 108.691 20.2673C109.107 19.8284 109.627 19.4822 110.23 19.204C110.832 18.9268 111.539 18.7877 112.33 18.7877C113.808 18.7877 115.242 19.1112 116.636 19.7356V24.0117H116.553H116.303H115.45C115.18 24.0117 115.035 23.85 114.972 23.5728C114.93 23.3647 114.868 22.7413 114.785 21.7006C114.265 21.4461 113.433 21.3307 112.352 21.3307C111.956 21.3307 111.645 21.3771 111.353 21.4698C111.061 21.5852 110.811 21.7244 110.624 21.9088C110.438 22.0931 110.27 22.3251 110.167 22.5796C110.063 22.8341 110.021 23.1339 110.021 23.4348C110.021 23.8273 110.146 24.1509 110.332 24.4054C110.52 24.6599 110.77 24.8907 111.103 25.0762C111.435 25.2606 111.81 25.4461 112.226 25.5842C112.641 25.7233 113.058 25.8851 113.494 26.0468C113.932 26.2086 114.347 26.4168 114.764 26.6249C115.179 26.8331 115.553 27.1102 115.887 27.4575C116.219 27.8037 116.49 28.1973 116.676 28.6826C116.885 29.1657 116.968 29.7675 116.968 30.4598Z" fill="black" fill-opacity="0.5"/>
<path d="M127.928 25.4836H126.152V21.9066H123.058V25.4836H121.282V17.0231H123.058V20.5593H126.152V17.0231H127.928V25.4836Z" fill="black" fill-opacity="0.5"/>
<path d="M137.275 21.2492C137.275 21.8612 137.18 22.4257 136.99 22.9427C136.8 23.4597 136.533 23.9065 136.188 24.2843C135.843 24.6622 135.427 24.9563 134.942 25.1667C134.455 25.3782 133.916 25.4834 133.323 25.4834H130.366V17.0229H133.323C133.914 17.0229 134.455 17.1292 134.942 17.3419C135.427 17.5546 135.843 17.8487 136.188 18.2243C136.533 18.5998 136.8 19.0455 136.99 19.5625C137.18 20.0795 137.275 20.6417 137.275 21.2492ZM135.468 21.2492C135.468 20.8306 135.419 20.4539 135.322 20.1168C135.223 19.7797 135.083 19.4947 134.901 19.2605C134.718 19.0263 134.494 18.8465 134.229 18.7209C133.964 18.5953 133.662 18.532 133.324 18.532H132.143V23.9732H133.324C133.662 23.9732 133.963 23.9099 134.229 23.7843C134.492 23.6588 134.718 23.4778 134.901 23.2436C135.083 23.0094 135.223 22.7243 135.322 22.3872C135.419 22.0513 135.468 21.6712 135.468 21.2492Z" fill="black" fill-opacity="0.5"/>
</svg>
