<svg width="121" height="36" viewBox="0 0 121 36" fill="none" xmlns="http://www.w3.org/2000/svg">
<path d="M6.2275 6.06252V8.67456C7.35308 6.80574 9.14723 5.87134 11.6099 5.87134C13.6484 5.87134 15.2989 6.55121 16.5625 7.90984C17.825 9.26846 18.4574 11.1158 18.4574 13.4518V23.8343H13.0421V14.1837C13.0421 13.0378 12.74 12.1509 12.1348 11.5242C11.5296 10.8986 10.6971 10.5852 9.63482 10.5852C8.57259 10.5852 7.73997 10.8986 7.13476 11.5242C6.52954 12.1509 6.2275 13.0366 6.2275 14.1837V23.8343H0.781738V6.06252H6.2275Z" fill="black" fill-opacity="0.5"/>
<path d="M23.8082 21.5097C22.2357 19.8105 21.4507 17.6352 21.4507 14.9801C21.4507 12.3262 22.2357 10.1452 23.8082 8.43476C25.3783 6.72546 27.2958 5.87024 29.5571 5.87024C31.8185 5.87024 33.5538 6.70962 34.7642 8.38612V6.06142H40.2112V23.8332H34.7642V21.2529C33.4475 23.1217 31.685 24.055 29.4768 24.055C27.2686 24.0572 25.3783 23.2088 23.8082 21.5097ZM33.5855 18.1974C34.3706 17.4327 34.7642 16.3501 34.7642 14.9485C34.7642 13.5468 34.3717 12.4699 33.5855 11.7154C32.7993 10.962 31.8977 10.5853 30.8784 10.5853C29.8592 10.5853 28.9564 10.9676 28.1714 11.7312C27.3863 12.4959 26.9926 13.5785 26.9926 14.9801C26.9926 16.3817 27.3852 17.4598 28.1714 18.2132C28.9564 18.9666 29.8603 19.3433 30.8784 19.3433C31.8977 19.3445 32.8004 18.9621 33.5855 18.1974Z" fill="black" fill-opacity="0.5"/>
<path d="M52.2182 19.2164H54.1606V23.8342H51.3902C49.3935 23.8342 47.8493 23.3941 46.7554 22.5117C45.6615 21.6316 45.1151 20.118 45.1151 17.9732V10.5839H43.459V6.06123H45.1151V1.73083H50.562V6.06236H54.1289V10.5851H50.562V17.9743C50.562 18.8024 51.1141 19.2164 52.2182 19.2164Z" fill="black" fill-opacity="0.5"/>
<path d="M69.6393 6.0625H75.0862V23.8343H69.6393V21.2223C68.5137 23.0911 66.7195 24.0255 64.2568 24.0255C62.2194 24.0255 60.5678 23.3467 59.3042 21.987C58.0406 20.6284 57.4094 18.7811 57.4094 16.445V6.0625H62.8236V15.7131C62.8236 16.8602 63.1267 17.746 63.7319 18.3727C64.3371 18.9994 65.1698 19.3127 66.232 19.3127C67.2942 19.3127 68.1268 18.9994 68.732 18.3727C69.3372 17.7471 69.6393 16.8602 69.6393 15.7131V6.0625Z" fill="black" fill-opacity="0.5"/>
<path d="M84.989 6.06252V9.37479C86.264 7.03878 87.962 5.87134 90.0853 5.87134V11.4133H88.7482C87.4947 11.4133 86.5558 11.7108 85.9291 12.3047C85.3024 12.8997 84.989 13.9394 84.989 15.4258V23.8343H79.5432V6.06252H84.989Z" fill="black" fill-opacity="0.5"/>
<path d="M93.78 21.5097C92.2087 19.8105 91.4236 17.6352 91.4236 14.9801C91.4236 12.3262 92.2087 10.1452 93.78 8.43476C95.3513 6.72546 97.2676 5.87024 99.5289 5.87024C101.79 5.87024 103.526 6.70962 104.736 8.38612V6.06142H110.182V23.8332H104.736V21.2529C103.419 23.1217 101.657 24.055 99.4497 24.055C97.2415 24.0572 95.3513 23.2088 93.78 21.5097ZM103.558 18.1974C104.343 17.4327 104.737 16.3501 104.737 14.9485C104.737 13.5468 104.343 12.4699 103.558 11.7154C102.773 10.962 101.871 10.5853 100.851 10.5853C99.8321 10.5853 98.9294 10.9676 98.1443 11.7312C97.3581 12.4959 96.9655 13.5785 96.9655 14.9801C96.9655 16.3817 97.3581 17.4598 98.1443 18.2132C98.9294 18.9666 99.8321 19.3433 100.851 19.3433C101.871 19.3445 102.772 18.9621 103.558 18.1974Z" fill="black" fill-opacity="0.5"/>
<path d="M114.641 23.8342V0.26593H120.087V23.8342H114.641Z" fill="black" fill-opacity="0.5"/>
<path d="M6.65069 29.6888V35.034H5.77395V31.3733L4.14268 35.034H3.53521L1.89718 31.3733V35.034H1.02051V29.6888H1.96622L3.84295 33.8801L5.71174 29.6888H6.65069Z" fill="black" fill-opacity="0.5"/>
<path d="M12.7266 35.0325V29.6874H13.6033V35.0325H12.7266Z" fill="black" fill-opacity="0.5"/>
<path d="M23.194 29.6794H24.0707V35.0325H23.194L20.5559 31.0403V35.0325H19.6792V29.6794H20.5559L23.194 33.6637V29.6794Z" fill="black" fill-opacity="0.5"/>
<path d="M33.1002 29.6794V30.3638H31.0232V31.986H32.8683V32.6625H31.0232V34.3469H33.1002V35.0313H30.1465V29.6783H33.1002V29.6794Z" fill="black" fill-opacity="0.5"/>
<path d="M39.9749 32.8639V35.0325H39.0981V29.6874H40.9444C41.5496 29.6874 42.0156 29.8367 42.3437 30.1365C42.6718 30.4363 42.8358 30.8175 42.8358 31.279C42.8358 31.6376 42.7272 31.9612 42.5089 32.2485C42.2905 32.5358 41.9557 32.7225 41.5054 32.8096L42.9206 35.0325H41.8516L40.5133 32.8639H39.9749ZM39.9749 30.3706V32.1784H40.9444C41.2769 32.1784 41.5258 32.0992 41.6909 31.9397C41.855 31.7802 41.9364 31.5585 41.9364 31.2745C41.9364 30.9894 41.855 30.7677 41.6909 30.6093C41.5258 30.451 41.2781 30.3706 40.9444 30.3706H39.9749Z" fill="black" fill-opacity="0.5"/>
<path d="M52.4886 35.0325L52.1041 33.9408H49.8664L49.4818 35.0325H48.5667L50.4818 29.6794H51.4966L53.4118 35.0325H52.4886ZM50.104 33.2553H51.8654L50.9886 30.7405L50.104 33.2553Z" fill="black" fill-opacity="0.5"/>
<path d="M59.1652 29.6874H60.0408V34.3628H61.8486V35.0314H59.1641V29.6874H59.1652Z" fill="black" fill-opacity="0.5"/>
<path d="M80.7514 29.6874H81.6904L80.1066 35.0325H79.1134L77.9912 30.9872L76.7989 35.0325L75.8147 35.0404L74.2988 29.6874H75.2298L76.3373 34.0404L77.5364 29.6874H78.5206L79.636 34.0166L80.7514 29.6874Z" fill="black" fill-opacity="0.5"/>
<path d="M90.9428 35.0325L90.5582 33.9408H88.3206L87.936 35.0325H87.0208L88.9359 29.6794H89.9507L91.8659 35.0325H90.9428ZM88.5581 33.2553H90.3195L89.4428 30.7405L88.5581 33.2553Z" fill="black" fill-opacity="0.5"/>
<path d="M97.3413 30.3707V29.6863H101.071V30.3707H99.649V35.0314H98.7723V30.3707H97.3413Z" fill="black" fill-opacity="0.5"/>
<path d="M109.831 29.6794V30.3638H107.754V31.986H109.601V32.6625H107.754V34.3469H109.831V35.0313H106.878V29.6783H109.831V29.6794Z" fill="black" fill-opacity="0.5"/>
<path d="M116.707 32.8639V35.0325H115.83V29.6874H117.675C118.281 29.6874 118.747 29.8367 119.075 30.1365C119.403 30.4363 119.567 30.8175 119.567 31.279C119.567 31.6376 119.458 31.9612 119.24 32.2485C119.022 32.5358 118.687 32.7225 118.235 32.8096L119.65 35.0325H118.583L117.244 32.8639H116.707ZM116.707 30.3706V32.1784H117.676C118.009 32.1784 118.258 32.0992 118.423 31.9397C118.587 31.7802 118.669 31.5585 118.669 31.2745C118.669 30.9894 118.587 30.7677 118.423 30.6093C118.259 30.451 118.01 30.3706 117.676 30.3706H116.707Z" fill="black" fill-opacity="0.5"/>
</svg>
