<svg width="25" height="24" viewBox="0 0 25 24" fill="none" xmlns="http://www.w3.org/2000/svg">
<g clip-path="url(#clip0)">
<path d="M23.8652 2.9998C22.9076 3.67528 21.8473 4.19191 20.7252 4.5298C20.123 3.83731 19.3226 3.34649 18.4323 3.12373C17.542 2.90096 16.6047 2.957 15.7473 3.28426C14.8899 3.61151 14.1537 4.1942 13.6382 4.95352C13.1228 5.71283 12.8529 6.61214 12.8652 7.5298V8.5298C11.1079 8.57537 9.36651 8.18561 7.79624 7.39525C6.22598 6.60488 4.87555 5.43844 3.86523 3.9998C3.86523 3.9998 -0.134766 12.9998 8.86523 16.9998C6.80576 18.3978 4.35239 19.0987 1.86523 18.9998C10.8652 23.9998 21.8652 18.9998 21.8652 7.4998C21.8643 7.22126 21.8375 6.9434 21.7852 6.6698C22.8058 5.6633 23.5261 4.39251 23.8652 2.9998V2.9998Z" stroke="white" stroke-width="2" stroke-linecap="round" stroke-linejoin="round"/>
</g>
<defs>
<clipPath id="clip0">
<rect width="24" height="24" fill="white" transform="translate(0.865234)"/>
</clipPath>
</defs>
</svg>
