<svg width="25" height="24" viewBox="0 0 25 24" fill="none" xmlns="http://www.w3.org/2000/svg">
<g clip-path="url(#clip0)">
<path d="M23.4053 6.42C23.2865 5.94541 23.0446 5.51057 22.704 5.15941C22.3633 4.80824 21.9361 4.55318 21.4653 4.42C19.7453 4 12.8653 4 12.8653 4C12.8653 4 5.98532 4 4.26532 4.46C3.79456 4.59318 3.3673 4.84824 3.02666 5.19941C2.68603 5.55057 2.44411 5.98541 2.32532 6.46C2.01053 8.20556 1.85655 9.97631 1.86532 11.75C1.8541 13.537 2.00809 15.3213 2.32532 17.08C2.45628 17.5398 2.70362 17.9581 3.04346 18.2945C3.3833 18.6308 3.80414 18.8738 4.26532 19C5.98532 19.46 12.8653 19.46 12.8653 19.46C12.8653 19.46 19.7453 19.46 21.4653 19C21.9361 18.8668 22.3633 18.6118 22.704 18.2606C23.0446 17.9094 23.2865 17.4746 23.4053 17C23.7177 15.2676 23.8716 13.5103 23.8653 11.75C23.8765 9.96295 23.7226 8.1787 23.4053 6.42V6.42Z" stroke="white" stroke-width="2" stroke-linecap="round" stroke-linejoin="round"/>
<path d="M10.6152 15.02L16.3652 11.75L10.6152 8.47998V15.02Z" stroke="white" stroke-width="2" stroke-linecap="round" stroke-linejoin="round"/>
</g>
<defs>
<clipPath id="clip0">
<rect width="24" height="24" fill="white" transform="translate(0.865234)"/>
</clipPath>
</defs>
</svg>
